<svg xmlns="http://www.w3.org/2000/svg" width="531.998" height="455.611" viewBox="0 0 531.998 455.611">
  <g id="taskbghero" transform="translate(-41.982 -97.362)">
    <path id="Path_17" data-name="Path 17" d="M169.68,315.618H45.361V280.782h64.892Z" transform="translate(-3.037 -18.799)" fill="#574cf2"/>
    <path id="Path_18" data-name="Path 18" d="M163.24,375.811V477.59h403.7V375.811Zm157.449,84.7H189.539V446.168h131.15Zm219.95-26.64h-351.1V419.528h351.1Zm0-26.64h-351.1V392.889h351.1Z" transform="translate(-121.258 -83.774)" fill="#3f3d56"/>
    <path id="Path_19" data-name="Path 19" d="M169.68,139.185H45.361V104.348h64.892Z" transform="translate(-3.037 -6.986)" fill="#574cf2"/>
    <path id="Path_20" data-name="Path 20" d="M163.24,201.574V303.352h403.7V201.574Zm157.449,84.7H189.539V271.93h131.15Zm75.821-26.64H189.539V245.291H396.51ZM540.639,233h-351.1V218.651h351.1Z" transform="translate(-121.258 -72.108)" fill="#3f3d56"/>
    <path id="Path_21" data-name="Path 21" d="M169.68,488.391H45.361V453.555h64.892Z" transform="translate(-3.037 -30.367)" fill="#574cf2"/>
    <path id="Path_22" data-name="Path 22" d="M163.24,546.388V648.167h403.7V546.388Zm233.27,84.7H189.539V616.744H396.51Zm0-26.64H189.539V590.1H396.51Zm144.129-26.64h-351.1V563.465h351.1Z" transform="translate(-121.258 -95.194)" fill="#3f3d56"/>
    <path id="Path_23" data-name="Path 23" d="M596.168,219.562H538.789V162.183h38.936v1.366H540.156V218.2H594.8V190.872h1.366Z" transform="translate(-36.074 -10.859)" fill="#3f3d56"/>
    <path id="Path_24" data-name="Path 24" d="M686.673,267.1c-1.326-3.915-17.954-17.224-7.765-19.461l8.356,11.141,38.416-38.415,3.864,3.864Z" transform="translate(-155.563 -73.366)" fill="#574cf2"/>
    <path id="Path_25" data-name="Path 25" d="M596.168,393.8H538.789V336.42h38.936v1.367H540.156v54.646H594.8V365.109h1.366Z" transform="translate(-36.074 -22.524)" fill="#3f3d56"/>
    <path id="Path_26" data-name="Path 26" d="M686.673,441.34c-1.326-3.915-17.954-17.224-7.765-19.461l8.356,11.141,38.416-38.415,3.864,3.864Z" transform="translate(-155.563 -85.032)" fill="#574cf2"/>
    <path id="Path_27" data-name="Path 27" d="M596.168,567.3H538.789V509.926h38.936v1.366H540.156v54.646H594.8V538.614h1.366Z" transform="translate(-36.074 -34.141)" fill="#3f3d56"/>
    <path id="Path_28" data-name="Path 28" d="M686.673,614.845c-1.326-3.915-17.954-17.224-7.765-19.461l8.356,11.141,38.416-38.415,3.864,3.864Z" transform="translate(-155.563 -96.649)" fill="#574cf2"/>
  </g>
</svg>
